# Blender v2.79 (sub 0) OBJ File: 'skybox.blend'
# www.blender.org
mtllib skybox.mtl
o Cube
v 0.500000 -0.500000 -0.500000
v 0.500000 -0.500000 0.500000
v -0.500000 -0.500000 0.500000
v -0.500000 -0.500000 -0.500000
v 0.500000 0.500000 -0.499999
v 0.499999 0.500000 0.500000
v -0.500000 0.500000 0.500000
v -0.500000 0.500000 -0.500000
vt 1.000000 0.000000
vt 0.666667 0.500000
vt 1.000000 0.500000
vt 0.333333 0.000000
vt 0.666667 0.500000
vt 0.666667 -0.000000
vt 0.000000 -0.000000
vt 0.333333 0.500000
vt 0.333333 0.000000
vt 0.666667 0.500000
vt 1.000000 1.000000
vt 1.000000 0.500000
vt 0.333333 0.500000
vt 0.666667 1.000000
vt 0.333333 1.000000
vt 0.000000 0.500000
vt -0.000000 1.000000
vt 0.666667 0.000000
vt 0.333333 0.500000
vt -0.000000 0.500000
vn 0.0000 1.0000 0.0000
vn 0.0000 -1.0000 0.0000
vn -1.0000 0.0000 0.0000
vn 0.0000 0.0000 -1.0000
vn 1.0000 0.0000 0.0000
vn -0.0000 -0.0000 1.0000
usemtl Material
s off
f 4/1/1 2/2/1 1/3/1
f 6/4/2 8/5/2 5/6/2
f 2/7/3 5/8/3 1/9/3
f 3/10/4 6/11/4 2/12/4
f 4/13/5 7/14/5 3/10/5
f 8/15/6 1/16/6 5/17/6
f 4/1/1 3/18/1 2/2/1
f 6/4/2 7/19/2 8/5/2
f 2/7/3 6/20/3 5/8/3
f 3/10/4 7/14/4 6/11/4
f 4/13/5 8/15/5 7/14/5
f 8/15/6 4/13/6 1/16/6
